<svg xmlns="http://www.w3.org/2000/svg" width="9.941" height="14.25" viewBox="0 0 9.941 14.25">
  <path id="Compound_Path_1" data-name="Compound Path_1" d="M1226.957,2391.006h0a.338.338,0,0,1,.087.467l-3.344,5.793a.338.338,0,0,1-.449.158h0a.338.338,0,0,1-.087-.467l3.344-5.793A.338.338,0,0,1,1226.957,2391.006Zm1.9,1.1h0a.337.337,0,0,1,.087.467l-3.344,5.793a.338.338,0,0,1-.449.157h0a.338.338,0,0,1-.088-.467l3.344-5.793A.338.338,0,0,1,1228.857,2392.1Zm-6.8,7.905v-.2l-.006-2.3,5.032-8.715a.308.308,0,0,1,.183-.144.3.3,0,0,1,.24.031l3.092,1.786a.3.3,0,0,1,.147.192.308.308,0,0,1-.033.231l-5.031,8.715h0l-2,1.147-.172.1-.725-.419Zm3.847.181-1.918,1.094-1.521.865a.633.633,0,0,1-1.013-.584l-.011-1.75-.012-2.208.049-.345,5.068-8.778a.9.9,0,0,1,.564-.432.926.926,0,0,1,.7.092l3.093,1.785a.93.93,0,0,1,.34,1.268l-5.075,8.79-.267.2Z" transform="translate(-1221.43 -2388.019)" fill="#4a4a4a" fill-rule="evenodd"/>
</svg>
