<svg xmlns="http://www.w3.org/2000/svg" width="36.065" height="35.254" viewBox="0 0 36.065 35.254">
  <path id="Home" d="M108.789,91.99,92.159,77.413a1.223,1.223,0,0,0-1.612,0L73.916,91.99a1.223,1.223,0,0,0,1.612,1.839L76.816,92.7v18.187a1.223,1.223,0,0,0,1.223,1.223h26.628a1.223,1.223,0,0,0,1.223-1.223V92.7l1.288,1.129a1.223,1.223,0,0,0,1.612-1.839Zm-20.26,17.675V99.591h5.647v10.073H88.529Zm14.915-19.1v19.1H96.622v-11.3A1.223,1.223,0,0,0,95.4,97.146H87.306a1.223,1.223,0,0,0-1.223,1.223v11.3H79.262v-19.1s0-.006,0-.009l12.091-10.6,12.092,10.6S103.444,90.563,103.444,90.566Z" transform="translate(-73.32 -76.956)" fill="#575757" stroke="#0f3773" stroke-width="0.2"/>
</svg>
