<svg xmlns="http://www.w3.org/2000/svg" width="10.812" height="9.944" viewBox="0 0 10.812 9.944">
  <path id="ico_trashbin" d="M826.513,1098.141m0,0Zm0,0Zm0,0a.935.935,0,0,1-.48.82l-1.068,7.413a.9.9,0,0,1-.892.771H818.2a.908.908,0,0,1-.9-.771l-1.117-7.413a.941.941,0,0,1,.461-1.761h8.93a.953.953,0,0,1,.668.279A.932.932,0,0,1,826.513,1098.141Zm-1.056.565-1.093,7.583a.3.3,0,0,1-.291.249H818.2a.305.305,0,0,1-.3-.255l-1.141-7.577a.3.3,0,0,0-.213-.243.339.339,0,0,1-.237-.322.331.331,0,0,1,.1-.237.335.335,0,0,1,.237-.1h8.93a.335.335,0,0,1,.237.1.358.358,0,0,1,.1.237h0a.339.339,0,0,1-.237.322A.3.3,0,0,0,825.456,1098.706Zm-6.5,1.349h0a.3.3,0,0,1,.3.3v4.735a.3.3,0,0,1-.3.3h0a.3.3,0,0,1-.3-.3v-4.735A.3.3,0,0,1,818.954,1100.055Zm2.151,0h0a.3.3,0,0,1,.3.3v4.735a.3.3,0,0,1-.3.3h0a.3.3,0,0,1-.3-.3v-4.735A.3.3,0,0,1,821.106,1100.055Zm2.152,0h0a.3.3,0,0,1,.3.3v4.735a.3.3,0,0,1-.3.3h0a.3.3,0,0,1-.3-.3v-4.735A.3.3,0,0,1,823.257,1100.055Z" transform="translate(-815.7 -1097.2)" fill="#4a4a4a" fill-rule="evenodd"/>
</svg>
