<svg xmlns="http://www.w3.org/2000/svg" width="36.158" height="35.103" viewBox="0 0 36.158 35.103">
  <path id="Cart" d="M108.319,84.267h-26.1l-1.5-3.534a1.235,1.235,0,0,0-.853-.719l-4.842-1.139a1.235,1.235,0,1,0-.566,2.4l4.234,1,10.839,25.478a4.082,4.082,0,1,0,7.314.411h4.446a4.083,4.083,0,1,0,3.759-2.489l-13.711.019-1.691-3.975h18.679a1.235,1.235,0,0,0,1.235-1.235V85.5A1.235,1.235,0,0,0,108.319,84.267Zm-3.275,23.879a1.613,1.613,0,1,1-1.613,1.613A1.613,1.613,0,0,1,105.044,108.146Zm-11.96,0a1.613,1.613,0,1,1-1.613,1.613A1.613,1.613,0,0,1,93.084,108.146Zm14-16.388H98.9a1.235,1.235,0,1,0,0,2.47h8.184v5.022H88.589L83.266,86.736h23.818Z" transform="translate(-73.446 -78.789)" fill="#515c6f" stroke="#515c6f" stroke-width="0.1"/>
</svg>
